<svg xmlns="http://www.w3.org/2000/svg" version="1.1" xmlns:xlink="http://www.w3.org/1999/xlink" xmlns:svgjs="http://svgjs.com/svgjs" width="512" height="512" x="0" y="0" viewBox="0 0 2210.986 2210.986" style="enable-background:new 0 0 512 512" xml:space="preserve" class=""><g><linearGradient id="SVGID_1_" gradientUnits="userSpaceOnUse" x1="0" x2="2210.986" y1="1105.493" y2="1105.493"><stop offset="0" stop-color="#ffe83e"></stop><stop offset="1" stop-color="#ffb600"></stop></linearGradient><linearGradient id="SVGID_2_" gradientUnits="userSpaceOnUse" x1="784.78" x2="1416.636" y1="1631.331" y2="1631.331"><stop offset="0" stop-color="#e84d00"></stop><stop offset=".3627" stop-color="#d43917"></stop><stop offset=".7208" stop-color="#c62c27"></stop><stop offset="1" stop-color="#c1272d"></stop></linearGradient><path d="m0 1105.484c0-610.539 494.945-1105.484 1105.502-1105.484 610.539 0 1105.484 494.945 1105.484 1105.484 0 610.556-494.945 1105.502-1105.484 1105.502-610.557 0-1105.502-494.946-1105.502-1105.502z" fill="url(#SVGID_1_)" data-original="url(#SVGID_1_)"></path><path d="m743.749 891.033c-36.48 0-66.052-29.572-66.052-66.035v-20.115c0-33.997-27.647-61.644-61.644-61.644-33.98 0-61.627 27.647-61.627 61.644v20.115c0 36.463-29.572 66.035-66.052 66.035s-66.052-29.572-66.052-66.035v-20.115c0-106.822 86.91-193.731 193.731-193.731 106.838 0 193.731 86.91 193.731 193.731v20.115c0 36.463-29.572 66.035-66.035 66.035z" fill="#282d35" data-original="#282d35"></path><path d="m1667.294 871.678c-36.48 0-66.052-29.572-66.052-66.035v-20.115c0-33.997-27.647-61.644-61.644-61.644-33.98 0-61.627 27.647-61.627 61.644v20.115c0 36.463-29.572 66.035-66.052 66.035s-66.052-29.572-66.052-66.035v-20.115c0-106.821 86.91-193.731 193.731-193.731 106.838 0 193.731 86.91 193.731 193.731v20.115c.001 36.463-29.572 66.035-66.035 66.035z" fill="#282d35" data-original="#282d35"></path><ellipse cx="422.322" cy="1137.759" fill="#f97e58" rx="201.034" ry="95.38" data-original="#f97e58"></ellipse><ellipse cx="1766.87" cy="1137.759" fill="#f97e58" rx="201.034" ry="95.38" data-original="#f97e58"></ellipse><path d="m1100.708 1779.88c-224.077 0-406.378-182.302-406.378-406.378 0-20.447 16.575-37.023 37.013-37.023h738.721c20.447 0 37.023 16.576 37.023 37.023-.001 224.076-182.303 406.378-406.379 406.378z" fill="#282d35" data-original="#282d35"></path><path d="m1100.708 1482.781c-119.673 0-231.64 51.828-315.928 146.018 74.566 92.088 188.483 151.082 315.928 151.082s241.362-58.994 315.928-151.082c-84.288-94.19-196.256-146.018-315.928-146.018z" fill="url(#SVGID_2_)" data-original="url(#SVGID_2_)"></path></g></svg>