<svg xmlns="http://www.w3.org/2000/svg" version="1.1" xmlns:xlink="http://www.w3.org/1999/xlink" xmlns:svgjs="http://svgjs.com/svgjs" width="512" height="512" x="0" y="0" viewBox="0 0 24 24" style="enable-background:new 0 0 512 512" xml:space="preserve" class=""><g><circle cx="12" cy="12" fill="#ffd54f" r="12" data-original="#ffd54f"></circle><path d="m21.555.964c-.579 0-1.125.195-1.555.531-.43-.336-.976-.531-1.555-.531-1.348 0-2.445 1.048-2.445 2.336 0 2.007 2.975 4.185 3.57 4.601.13.09.28.135.43.135s.3-.045.43-.135c.595-.417 3.57-2.594 3.57-4.601 0-1.288-1.097-2.336-2.445-2.336z" fill="#e53935" data-original="#e53935" class=""></path><path d="m5.555 16.964c-.579 0-1.125.195-1.555.531-.43-.336-.976-.531-1.555-.531-1.348 0-2.445 1.048-2.445 2.336 0 2.007 2.975 4.185 3.57 4.601.13.09.28.135.43.135s.3-.045.43-.135c.595-.417 3.57-2.594 3.57-4.601 0-1.288-1.097-2.336-2.445-2.336z" fill="#e53935" data-original="#e53935" class=""></path><g fill="#6d4c41"><path d="m9.25 11.25c-.414 0-.75-.336-.75-.75 0-.551-.448-1-1-1s-1 .449-1 1c0 .414-.336.75-.75.75s-.75-.336-.75-.75c0-1.378 1.121-2.5 2.5-2.5s2.5 1.122 2.5 2.5c0 .414-.336.75-.75.75z" fill="#6d4c41" data-original="#6d4c41"></path><path d="m18.25 11.25c-.414 0-.75-.336-.75-.75 0-.551-.448-1-1-1s-1 .449-1 1c0 .414-.336.75-.75.75s-.75-.336-.75-.75c0-1.378 1.121-2.5 2.5-2.5s2.5 1.122 2.5 2.5c0 .414-.336.75-.75.75z" fill="#6d4c41" data-original="#6d4c41"></path><path d="m12 18c-2.184 0-4.236-.85-5.78-2.395-.293-.293-.293-.768 0-1.061s.768-.293 1.061 0c1.26 1.262 2.936 1.956 4.719 1.956s3.459-.694 4.72-1.955c.293-.293.768-.293 1.061 0s.293.768 0 1.061c-1.545 1.544-3.597 2.394-5.781 2.394z" fill="#6d4c41" data-original="#6d4c41"></path></g></g></svg>